<svg width="13" height="12" viewBox="0 0 13 12" fill="#9c9c9c" xmlns="http://www.w3.org/2000/svg">
    <path fill-rule="evenodd" clip-rule="evenodd"
        d="M7.79998 3.39998C7.79998 4.83324 6.63389 5.99999 5.19999 5.99999C3.76674 5.99999 2.59999 4.83324 2.59999 3.39998C2.59999 1.96674 3.76609 0.799988 5.19999 0.799988C6.63389 0.799988 7.79998 1.96674 7.79998 3.39998ZM0 10.55C0 8.25354 2.1385 6.64999 5.19999 6.64999C8.26213 6.64999 10.4 8.25354 10.4 10.55V11.2H0V10.55ZM11.7 11.2H13V10.55C13 8.88423 11.8752 7.58306 10.0888 6.99397C11.0903 7.88934 11.7 9.11992 11.7 10.55V11.2ZM10.4 3.39998C10.4 4.6361 9.53267 5.67395 8.37417 5.93609C8.32139 5.91438 8.26816 5.89326 8.21453 5.87272C8.76775 5.19932 9.10003 4.33786 9.10003 3.39998C9.10003 2.4115 8.73089 1.50792 8.12308 0.819953C9.40501 0.979515 10.4 2.07605 10.4 3.39998Z"
        fill="#9c9c9c" />
</svg>