<svg height="256px" width="256px" version="1.1" id="Layer_1" xmlns="http://www.w3.org/2000/svg" xmlns:xlink="http://www.w3.org/1999/xlink" viewBox="-29.7 -29.7 356.40 356.40" xml:space="preserve" fill="#000000" transform="rotate(0)matrix(1, 0, 0, 1, 0, 0)" stroke="#000000" stroke-width="0.00297"><g id="SVGRepo_bgCarrier" stroke-width="0"></g><g id="SVGRepo_tracerCarrier" stroke-linecap="round" stroke-linejoin="round" stroke="#CCCCCC" stroke-width="0.5940000000000001"></g><g id="SVGRepo_iconCarrier"> <g> <g> <circle style="fill:#2563eb;" cx="148.5" cy="148.5" r="148.5"></circle> </g> <path style="fill:#3b82f6;" d="M68.489,183.939l110.026,110.026c62.607-12.851,110.838-65.104,117.653-129.706l-67.897-67.897 L68.489,183.939z"></path> <g> <path style="fill:#60a5fa;" d="M148.5,66c-54.676,0-99,33.243-99,74.25c0,38.177,38.42,69.62,87.843,73.778L132,247.5l16.5-14.514 V66L148.5,66z"></path> <path style="fill:#60a5fa;" d="M148.5,66v166.986l23.394-20.577c43.384-7.884,75.606-37.197,75.606-72.159 C247.5,99.243,203.176,66,148.5,66z"></path> </g> <g> <g> <path style="fill:#70aefa;" d="M148.5,66v166.986l23.394-20.577c43.384-7.884,75.606-37.197,75.606-72.159 C247.5,99.243,203.176,66,148.5,66z"></path> </g> <g> <circle style="fill:#ffffff;" cx="198" cy="142.5" r="13"></circle> </g> <g> <circle style="fill:#ffffff;" cx="148.5" cy="142.5" r="13"></circle> </g> <g> <path style="fill:#ffffff;" d="M161.5,142.5c0-7.18-5.82-13-13-13v26C155.68,155.5,161.5,149.68,161.5,142.5z"></path> </g> <g> <circle style="fill:#ffffff;" cx="99" cy="142.5" r="13"></circle> </g> </g> </g> </g></svg>